<?xml version="1.0" encoding="UTF-8"?>
<svg id="Layer_1" data-name="Layer 1" xmlns="http://www.w3.org/2000/svg" xmlns:xlink="http://www.w3.org/1999/xlink" viewBox="0 0 199.62 304.98">
  <defs>
    <style>
      .cls-1 {
        letter-spacing: .05em;
      }

      .cls-2 {
        stroke: #043a52;
        stroke-width: 7px;
      }

      .cls-2, .cls-3 {
        fill: none;
      }

      .cls-4 {
        clip-path: url(#clippath);
      }

      .cls-3, .cls-5, .cls-6 {
        stroke-width: 0px;
      }

      .cls-5 {
        opacity: .2;
      }

      .cls-5, .cls-7 {
        fill: #043a52;
      }

      .cls-8 {
        clip-path: url(#clippath-1);
      }

      .cls-9 {
        clip-path: url(#clippath-4);
      }

      .cls-10 {
        clip-path: url(#clippath-3);
      }

      .cls-11 {
        clip-path: url(#clippath-2);
      }

      .cls-12 {
        clip-path: url(#clippath-5);
      }

      .cls-13 {
        letter-spacing: .09em;
      }

      .cls-7 {
        font-family: Futura-Medium, Futura;
        font-size: 35px;
        font-weight: 500;
      }

      .cls-6 {
        fill: #fff;
      }
    </style>
    <clipPath id="clippath">
      <rect class="cls-3" x="134.05" y="95.22" width="65.57" height="136.89"/>
    </clipPath>
    <clipPath id="clippath-1">
      <rect class="cls-3" y="27.09" width="154.34" height="277.89"/>
    </clipPath>
    <clipPath id="clippath-2">
      <rect class="cls-3" x="8.53" y="62.66" width="137.27" height="233.39"/>
    </clipPath>
    <clipPath id="clippath-3">
      <rect class="cls-3" x="1.6" y="228.68" width="151.15" height="68.72"/>
    </clipPath>
    <clipPath id="clippath-4">
      <rect class="cls-3" x="32.58" y="34.34" width="89.18" height="28.11"/>
    </clipPath>
    <clipPath id="clippath-5">
      <rect class="cls-3" x="21.22" width="111.89" height="36.34"/>
    </clipPath>
  </defs>
  <g class="cls-4">
    <path class="cls-5" d="M140.41,99.79l19.42.27c9.22.9,17.81,5.06,24.24,11.73,6.6,6.85,10.47,15.86,10.88,25.36l.17,54.54c-.47,9.81-4.75,19.05-11.92,25.75-6.91,6.45-15.99,10.06-25.44,10.11l-7.65.03.1-23.43c6.24,2.67,13.47,1.49,18.54-3.03,3.99-3.56,6.09-8.77,5.69-14.1l.14-45.99c-.17-6.91-3.82-13.27-9.7-16.89-5.12-3.15-11.37-3.86-17.06-1.94-.8-3.43-1.74-6.83-2.81-10.19-1.33-4.15-2.86-8.24-4.58-12.24Z"/>
    <path class="cls-2" d="M140.55,100.24c-.23-.69,1.87-.37,2.98-.41,5.28.19,12.37-.06,17.56.4,17.94,2.09,32.9,17.84,33.92,35.88.27,14.33.15,49.96.25,55.21-.37,16.33-12.72,31.45-28.67,35.13-4.84,1.28-9.8,1.16-14.8,1.17-.96-.07-1.5.18-1.79-.44-.1-3.44.08-17.92.06-21.87-.14-1.42,1.59-.48,2.51-.32,8.91,2.53,19.15-3.24,21.32-12.38,1.34-9.53.27-32.41.68-49.16.85-10.16-6.59-20.32-16.85-21.91-2.66-.51-5.46-.35-8.09.15-.92.12-1.63-.05-2.06-.69-2.2-6.9-4.28-13.98-7.02-20.65v-.09Z"/>
  </g>
  <g class="cls-8">
    <path class="cls-2" d="M31.52,31.85c.06,9.78-1,19.53-3.17,29.06-1.38,6.06-3.2,12.02-5.45,17.81l-7.01,17.23c-3.37,7.02-6.02,14.37-7.9,21.93-1.84,7.41-2.94,14.98-3.27,22.61l-.21,129.11c.22,8.19,3.57,15.99,9.37,21.78,5.08,5.06,11.71,8.26,18.84,9.08h89.38c6.96-.66,13.49-3.66,18.53-8.5,4.99-4.79,8.23-11.11,9.21-17.95l-.13-128.64c.18-6.31-.3-12.63-1.42-18.85-1.18-6.52-3.06-12.89-5.62-19.01l-9.38-23.8c-3.76-7.97-6.59-16.35-8.45-24.97-1.92-8.92-2.77-18.04-2.55-27.16l-90.77.25Z"/>
  </g>
  <g class="cls-11">
    <path class="cls-5" d="M32.96,63.66l87.75.26c2.15,6.48,4.43,12.92,6.84,19.32,2.46,6.53,5.04,13,7.75,19.43,2.89,6,5.12,12.3,6.66,18.78,1.53,6.45,2.37,13.05,2.5,19.68l.22,126.94c.74,7.52-2,14.97-7.44,20.21-4.26,4.1-9.86,6.51-15.76,6.79l-86.64-.19c-6.44-.31-12.53-3.01-17.07-7.57-5.49-5.51-8.23-13.19-7.48-20.94l-.76-123.82c.3-8.03,1.49-16.01,3.55-23.78,2.08-7.84,5.02-15.43,8.78-22.62,2.34-5.06,4.42-10.24,6.23-15.5,1.92-5.57,3.55-11.23,4.87-16.96Z"/>
  </g>
  <g class="cls-10">
    <text class="cls-7" transform="translate(31.5 275.91)"><tspan class="cls-1" x="0" y="0">dai</tspan><tspan class="cls-13" x="55.83" y="0">r</tspan><tspan x="72.18" y="0">y</tspan></text>
  </g>
  <g class="cls-9">
    <path class="cls-6" d="M50.44,35.34c.19,3.61.04,7.23-.45,10.81-.41,2.99-1.05,5.95-1.91,8.84l-13.47.2c-.07,1.07-.2,2.13-.37,3.18-.17,1.03-.39,2.06-.66,3.08l87.18-.22c-.32-.87-.59-1.75-.81-2.65-.26-1.11-.44-2.23-.54-3.37l-61.24-.05c.79-3.24,1.32-6.54,1.59-9.86.27-3.23.29-6.48.07-9.71l-9.41-.25Z"/>
  </g>
  <g class="cls-12">
    <path class="cls-5" d="M34.16,4.81l84.64-.26c2.59-.26,5.16.62,7.05,2.41,1.65,1.56,2.64,3.7,2.76,5.98l-.13,10.61c-.11,2.26-1.09,4.38-2.73,5.94-1.47,1.39-3.37,2.22-5.39,2.36l-87.45-.03c-2.19-.21-4.2-1.33-5.54-3.07-1.2-1.57-1.77-3.53-1.6-5.5l-.04-9.83c-.15-2.71,1.06-5.31,3.21-6.96,1.49-1.14,3.34-1.72,5.21-1.64Z"/>
    <path class="cls-2" d="M34.16,4.81l84.64-.26c2.59-.26,5.16.62,7.05,2.41,1.65,1.56,2.64,3.7,2.76,5.98l-.13,10.61c-.11,2.26-1.09,4.38-2.73,5.94-1.47,1.39-3.37,2.22-5.39,2.36l-87.45-.03c-2.19-.21-4.2-1.33-5.54-3.07-1.2-1.57-1.77-3.53-1.6-5.5l-.04-9.83c-.15-2.71,1.06-5.31,3.21-6.96,1.49-1.14,3.34-1.72,5.21-1.64Z"/>
  </g>
</svg>
